<svg width="22" height="21" viewBox="0 0 22 21" fill="none" xmlns="http://www.w3.org/2000/svg">
<path d="M11.1954 13.0397C11.5859 13.0139 11.9419 12.8448 12.173 12.5749L15.6857 8.45146C15.7934 8.32499 15.7773 8.15041 15.6467 8.03955C15.5162 7.92901 15.3106 7.91531 15.1616 8.00642L10.3047 10.9901C9.98807 11.1857 9.78885 11.488 9.75847 11.8196C9.72808 12.1513 9.86952 12.4759 10.146 12.7107C10.3978 12.9247 10.7373 13.0432 11.0903 13.0432C11.1252 13.0432 11.1601 13.042 11.1954 13.0397ZM10.5065 11.8693C10.5197 11.7237 10.6075 11.5909 10.7455 11.5055L13.7082 9.68557L11.5656 12.2006C11.4644 12.3188 11.3079 12.393 11.1365 12.4045C10.9658 12.4141 10.7981 12.3637 10.6761 12.2602C10.5553 12.1573 10.493 12.0146 10.5065 11.8693Z" fill="#21406C"/>
<path d="M19.5991 7.17018C19.5953 7.16349 19.5953 7.15648 19.5912 7.14979C19.5867 7.14342 19.5796 7.13992 19.5747 7.13387C19.1954 6.58148 18.7467 6.06763 18.2372 5.60189L19.0431 4.91794L19.5736 5.36839L21.165 4.01672L19.5736 2.66538L17.9817 4.01672L18.5126 4.46749L17.7068 5.15145C17.1583 4.71884 16.5535 4.33752 15.9026 4.01545C15.8954 4.01131 15.8913 4.00525 15.8838 4.00143C15.8759 3.99761 15.8677 3.99793 15.8598 3.99442C14.6994 3.42674 13.3957 3.04861 12.0057 2.91003V2.53062H12.5685C13.0858 2.53062 13.5064 2.17351 13.5064 1.73421C13.5064 1.29491 13.0854 0.937805 12.5681 0.937805H9.19158C8.67422 0.937805 8.25366 1.29491 8.25366 1.73421C8.25366 2.17351 8.67422 2.53062 9.19158 2.53062H9.75433V2.89888C9.34915 2.93552 8.94472 2.99158 8.54479 3.06931C8.34295 3.1085 8.21652 3.27957 8.26304 3.45095C8.30919 3.62234 8.51065 3.73001 8.71249 3.69019C9.05764 3.62298 9.40617 3.57233 9.75545 3.53824L10.158 3.5118C10.2811 3.50383 10.3944 3.4981 10.5047 3.49364V4.12344C10.5047 4.29961 10.6724 4.442 10.8798 4.442C11.0873 4.442 11.255 4.29961 11.255 4.12344V3.49587C12.666 3.55098 13.9956 3.87273 15.1777 4.40218L14.8078 4.94597C14.7043 5.09856 14.7658 5.29321 14.9451 5.38113C15.004 5.41012 15.0686 5.42382 15.1324 5.42382C15.2622 5.42382 15.3882 5.36679 15.4576 5.26454L15.8264 4.72202C17.0003 5.35437 17.9975 6.20111 18.7422 7.1979L18.1033 7.51105C17.9243 7.59897 17.8628 7.79361 17.9667 7.9462C18.0365 8.04846 18.1622 8.10548 18.292 8.10548C18.3558 8.10548 18.4203 8.09179 18.4792 8.0628L19.1196 7.74869C19.7518 8.76682 20.1318 9.91429 20.1885 11.1315H19.4475C19.2401 11.1315 19.0724 11.2739 19.0724 11.4501C19.0724 11.6262 19.2401 11.7686 19.4475 11.7686H20.1885C20.1318 12.9859 19.7518 14.1333 19.1196 15.1515L18.4792 14.8374C18.2999 14.7494 18.0703 14.8011 17.9667 14.954C17.8632 15.1066 17.9247 15.3012 18.1041 15.3891L18.743 15.7023C17.9983 16.6991 17.0011 17.5458 15.8272 18.1781L15.4584 17.6356C15.3545 17.4827 15.1245 17.4308 14.9459 17.519C14.7662 17.607 14.7047 17.8019 14.8086 17.9542L15.1785 18.498C13.9963 19.0274 12.6668 19.3492 11.2557 19.4043V18.7774C11.2557 18.6012 11.088 18.4588 10.8806 18.4588C10.6731 18.4588 10.5054 18.6012 10.5054 18.7774V19.4068C9.90627 19.3893 9.30525 19.3256 8.71361 19.2103C8.51177 19.1692 8.31031 19.2781 8.26416 19.4495C8.21764 19.6209 8.34408 19.792 8.54592 19.8312C9.29475 19.9777 10.0597 20.0516 10.8187 20.0516C10.8371 20.0516 10.8547 20.0507 10.8731 20.0503C10.8757 20.0503 10.8776 20.0516 10.8798 20.0516C10.8828 20.0516 10.8855 20.05 10.8885 20.05C12.6919 20.0395 14.3839 19.626 15.8478 18.9118C15.8594 18.9073 15.8718 18.9051 15.8831 18.8994C15.8906 18.8956 15.8947 18.8895 15.9018 18.8854C17.4171 18.1355 18.6833 17.0616 19.5683 15.7759C19.5755 15.7673 19.5845 15.7606 19.5908 15.751C19.5953 15.7443 19.595 15.7373 19.5987 15.7306C20.4556 14.4691 20.9482 13.0082 20.9482 11.4504C20.9482 9.89263 20.4556 8.43169 19.5991 7.17018ZM19.5732 3.56627L20.1037 4.01672L19.5732 4.46749L19.0423 4.01672L19.5732 3.56627ZM10.5047 2.85588V1.8935H9.19158C9.08841 1.8935 9.00399 1.82182 9.00399 1.73421C9.00399 1.64661 9.08841 1.57493 9.19158 1.57493H12.5681C12.6713 1.57493 12.7557 1.64661 12.7557 1.73421C12.7557 1.82182 12.6713 1.8935 12.5681 1.8935H11.255V2.85588C11.1244 2.85142 10.9999 2.84919 10.8798 2.84919C10.8693 2.84919 10.8573 2.84982 10.8468 2.84982C10.8374 2.84982 10.8281 2.84919 10.8187 2.84919C10.7572 2.84919 10.6956 2.85269 10.6341 2.85365C10.5906 2.8546 10.5497 2.85428 10.5047 2.85588Z" fill="#21406C"/>
<path d="M7.5034 5.3978H5.62756C5.4201 5.3978 5.2524 5.54019 5.2524 5.71636C5.2524 5.89253 5.4201 6.03492 5.62756 6.03492H7.5034C7.71087 6.03492 7.87857 5.89253 7.87857 5.71636C7.87857 5.54019 7.71087 5.3978 7.5034 5.3978Z" fill="#21406C"/>
<path d="M7.50332 7.62766H3.75165C3.54418 7.62766 3.37648 7.77005 3.37648 7.94622C3.37648 8.12238 3.54418 8.26478 3.75165 8.26478H7.50332C7.71079 8.26478 7.87849 8.12238 7.87849 7.94622C7.87849 7.77005 7.71079 7.62766 7.50332 7.62766Z" fill="#21406C"/>
<path d="M7.50332 9.85754H1.87581C1.66834 9.85754 1.50064 9.99994 1.50064 10.1761C1.50064 10.3523 1.66834 10.4947 1.87581 10.4947H7.50332C7.71078 10.4947 7.87849 10.3523 7.87849 10.1761C7.87849 9.99994 7.71078 9.85754 7.50332 9.85754Z" fill="#21406C"/>
<path d="M7.50335 12.0876H0.375167C0.1677 12.0876 0 12.23 0 12.4062C0 12.5823 0.1677 12.7247 0.375167 12.7247H7.50335C7.71081 12.7247 7.87851 12.5823 7.87851 12.4062C7.87851 12.23 7.71081 12.0876 7.50335 12.0876Z" fill="#21406C"/>
<path d="M7.50326 14.3175H2.62608C2.41862 14.3175 2.25092 14.4599 2.25092 14.6361C2.25092 14.8122 2.41862 14.9546 2.62608 14.9546H7.50326C7.71073 14.9546 7.87843 14.8122 7.87843 14.6361C7.87843 14.4599 7.71073 14.3175 7.50326 14.3175Z" fill="#21406C"/>
<path d="M7.50332 16.5474H4.87715C4.66968 16.5474 4.50198 16.6898 4.50198 16.866C4.50198 17.0422 4.66968 17.1846 4.87715 17.1846H7.50332C7.71079 17.1846 7.87849 17.0422 7.87849 16.866C7.87849 16.6898 7.71079 16.5474 7.50332 16.5474Z" fill="#21406C"/>
</svg>
